# xmcd CD database file
#
# Track frame offsets:
#	150
#	17640
#	31427
#	51877
#	70715
#	91330
#	109842
#	126957
#	145857
#	164435
#	183347
#	201305
#	221367
#	241255
#	262035
#	280267
#	301512
#
# Disc length: 4234 seconds
#
# Revision: 0
# Processed by: cddbd v1.5.1PL2 Copyright (c) Steve Scherf et al.
# Submitted via: CDex 1.51
#
DISCID=f0108811
DTITLE=薬師丸ひろ子 - PURESWEET-2
DYEAR=1900
DGENRE=Pop
TTITLE0=あなたを・もっと・知りたくて
TTITLE1=天に星.地に花.
TTITLE2=スマッシュ・ボーイの微笑み
TTITLE3=冷たくされたい
TTITLE4=過去からの手紙
TTITLE5=千年の孤独
TTITLE6=WELCME BACK TO MY HEART
TTITLE7=ある日印象派
TTITLE8=クリスマス・アベニュ−
TTITLE9=水の中のイエスタディ〜再開物語〜
TTITLE10=バンブ−・ボート
TTITLE11=「野蛮人のように」よりステキな恋の忘れ方
TTITLE12=不思議よセ・ラ・ヴィ
TTITLE13=花のささやき
TTITLE14=100粒の涙
TTITLE15=ローズ・ティ−はいかが？
TTITLE16=寒椿、咲いた
EXTD=
EXTT0=
EXTT1=
EXTT2=
EXTT3=
EXTT4=
EXTT5=
EXTT6=
EXTT7=
EXTT8=
EXTT9=
EXTT10=
EXTT11=
EXTT12=
EXTT13=
EXTT14=
EXTT15=
EXTT16=
PLAYORDER=
